<?xml version="1.0" standalone="no"?><svg xmlns="http://www.w3.org/2000/svg" viewBox="0 0 1440 320"><path fill="#676FFF" fill-opacity="1" d="M0,192L26.7,160C53.3,128,107,64,160,80C213.3,96,267,192,320,202.7C373.3,213,427,139,480,128C533.3,117,587,171,640,181.3C693.3,192,747,160,800,160C853.3,160,907,192,960,208C1013.3,224,1067,224,1120,202.7C1173.3,181,1227,139,1280,138.7C1333.3,139,1387,181,1413,202.7L1440,224L1440,320L1413.3,320C1386.7,320,1333,320,1280,320C1226.7,320,1173,320,1120,320C1066.7,320,1013,320,960,320C906.7,320,853,320,800,320C746.7,320,693,320,640,320C586.7,320,533,320,480,320C426.7,320,373,320,320,320C266.7,320,213,320,160,320C106.7,320,53,320,27,320L0,320Z"></path></svg>