<?xml version="1.0" standalone="no"?><svg xmlns="http://www.w3.org/2000/svg" viewBox="0 0 1440 320"><path fill="#676FFF" fill-opacity="1" d="M0,192L26.7,165.3C53.3,139,107,85,160,85.3C213.3,85,267,139,320,138.7C373.3,139,427,85,480,80C533.3,75,587,117,640,133.3C693.3,149,747,139,800,160C853.3,181,907,235,960,218.7C1013.3,203,1067,117,1120,112C1173.3,107,1227,181,1280,218.7C1333.3,256,1387,256,1413,256L1440,256L1440,0L1413.3,0C1386.7,0,1333,0,1280,0C1226.7,0,1173,0,1120,0C1066.7,0,1013,0,960,0C906.7,0,853,0,800,0C746.7,0,693,0,640,0C586.7,0,533,0,480,0C426.7,0,373,0,320,0C266.7,0,213,0,160,0C106.7,0,53,0,27,0L0,0Z"></path></svg>